<?xml version="1.0" encoding="UTF-8" standalone="no"?>
<svg
   width="45.5"
   height="29"
   viewBox="0 0 45.5 29"
   fill="none"
   version="1.1"
   id="svg96"
   sodipodi:docname="logo1.svg"
   inkscape:version="1.2.2 (732a01da63, 2022-12-09)"
   xmlns:inkscape="http://www.inkscape.org/namespaces/inkscape"
   xmlns:sodipodi="http://sodipodi.sourceforge.net/DTD/sodipodi-0.dtd"
   xmlns="http://www.w3.org/2000/svg"
   xmlns:svg="http://www.w3.org/2000/svg">
  <defs
     id="defs100" />
  <sodipodi:namedview
     id="namedview98"
     pagecolor="#ffffff"
     bordercolor="#000000"
     borderopacity="0.25"
     inkscape:showpageshadow="2"
     inkscape:pageopacity="0.0"
     inkscape:pagecheckerboard="0"
     inkscape:deskcolor="#d1d1d1"
     showgrid="false"
     inkscape:zoom="12.961538"
     inkscape:cx="52"
     inkscape:cy="13.038576"
     inkscape:window-width="1920"
     inkscape:window-height="1017"
     inkscape:window-x="-8"
     inkscape:window-y="-8"
     inkscape:window-maximized="1"
     inkscape:current-layer="svg96" />
  <path
     d="m 34.25444,24.951156 c 0.164377,1.097456 -0.283524,2.145568 -1.094577,2.802474 -0.150689,0.123411 -0.313756,0.2317 -0.487774,0.324755 -0.157474,0.08312 -0.321851,0.154761 -0.495869,0.211389 -0.394457,0.129593 -0.805459,0.17739 -1.209676,0.153546 -0.01095,0 -0.0219,0 -0.03285,-0.0025 -0.813671,-0.05409 -1.597348,-0.396396 -2.152135,-0.943799 -0.900086,-0.88717 -0.874019,-1.989593 -0.863188,-2.219857 0,-0.110828 0.0056,-0.218895 0.01928,-0.32597 h -9.78144 c 0.01381,0.107075 0.01916,0.215142 0.01916,0.32597 0.01107,0.230264 0.03714,1.332687 -0.862949,2.219857 -0.554906,0.547403 -1.338464,0.88971 -2.152136,0.943799 -0.01107,0.0025 -0.02202,0.0025 -0.03309,0.0025 -0.403979,0.02384 -0.814981,-0.02395 -1.209438,-0.153546 -0.174137,-0.05663 -0.338514,-0.128268 -0.495987,-0.211389 -0.174018,-0.09305 -0.337086,-0.201344 -0.487775,-0.32343 -0.0013,0 -0.0013,-0.0013 -0.0013,-0.0013 -0.809625,-0.65812 -1.257633,-1.705018 -1.093232,-2.802474 H 8.3159733 c 0.023282,-0.08058 0.047944,-0.162267 0.071238,-0.242848 0.4383782,-1.496279 0.8767564,-2.993773 1.3151465,-4.490162 l 0.2876775,-0.01258 3.3659187,-0.138313 c 0.152117,-0.0063 0.268525,-0.123412 0.261741,-0.261835 -0.0069,-0.139749 -0.131525,-0.247927 -0.28638,-0.24031 l -3.19196,0.130807 -0.2863084,0.01258 C 10.01196,19.162417 10.172242,18.617442 10.331156,18.072578 l 0.278096,0.02142 2.702899,0.207525 h 0.02333 c 0.141047,0 0.261622,-0.09935 0.272573,-0.230265 0.01238,-0.138313 -0.09867,-0.26051 -0.249363,-0.27188 l -2.604226,-0.200019 -0.278095,-0.02142 c 0.161639,-0.55237 0.323314,-1.104851 0.484953,-1.656117 l 0.25754,0.09184 2.564518,0.90991 c 0.03154,0.01137 0.06582,0.01766 0.09867,0.01766 0.109505,0 0.213654,-0.0617 0.254838,-0.161053 0.05475,-0.129703 -0.01512,-0.275633 -0.156283,-0.325969 L 11.362715,15.5241 11.105164,15.43358 c 1.420688,-4.850041 2.84259,-9.7000491 4.263302,-14.54882765 1.026136,2.89944325 2.050724,5.79889085 3.075432,8.69708015 0.723449,-0.3372616 2.40983,-1.028144 4.593389,-0.9966841 h 0.01928 c 2.183559,-0.03146 3.87006,0.6594225 4.59339,0.9966841 1.024707,-2.8981893 2.049415,-5.7976369 3.07555,-8.69708015 C 32.1461,5.7335309 33.568121,10.583539 34.988714,15.43358 l -0.257456,0.09052 -2.618009,0.93011 c -0.141167,0.05034 -0.212464,0.196266 -0.157593,0.325969 0.04249,0.09935 0.146523,0.161053 0.256266,0.161053 0.03285,0 0.0657,-0.0063 0.09855,-0.01766 l 2.564447,-0.90991 0.257695,-0.09184 c 0.16152,0.551266 0.323278,1.103747 0.484798,1.656117 l -0.278048,0.02142 -2.604202,0.200019 c -0.150689,0.01137 -0.263051,0.133567 -0.250791,0.27188 0.01238,0.130918 0.132954,0.230265 0.272692,0.230265 h 0.02333 l 2.704304,-0.207525 0.278048,-0.02142 c 0.158902,0.544864 0.319113,1.089839 0.478014,1.635917 l -0.286261,-0.01258 -3.193269,-0.130807 c -0.154736,-0.0052 -0.279476,0.100561 -0.286261,0.24031 -0.007,0.138423 0.110934,0.255543 0.261623,0.261835 l 3.367287,0.138313 0.287689,0.01258 c 0.438378,1.496389 0.876756,2.993883 1.315135,4.490162 0.02333,0.08058 0.04785,0.162267 0.07118,0.242848 z"
     fill="#f4e041"
     id="path52"
     style="stroke-width:1.14625" />
  <path
     d="m 38.13414,25.202836 -0.07118,-0.241635 -0.07404,-0.253004 -1.312397,-4.478792 -0.284952,-0.01126 -0.287689,-0.01258 1.316444,4.493804 h -3.480959 l 0.04249,0.285789 c 0.130097,0.864431 -0.14938,1.70259 -0.709642,2.306621 -0.106887,0.115795 -0.224724,0.222759 -0.350774,0.318353 -0.03821,0.03025 -0.07808,0.05917 -0.117718,0.08566 -0.08225,0.05784 -0.167115,0.109503 -0.256266,0.155975 -0.146523,0.07937 -0.301259,0.147255 -0.464445,0.200129 -0.271145,0.0893 -0.553478,0.1371 -0.836882,0.144716 -0.09332,0.0025 -0.186397,0 -0.279477,-0.0051 -0.09046,-0.005 -0.180922,-0.01512 -0.271264,-0.02892 -0.641201,-0.09438 -1.253597,-0.383811 -1.713757,-0.838048 -0.764514,-0.753935 -0.807006,-1.674994 -0.789152,-2.047546 0,-0.109392 0.0055,-0.206421 0.01643,-0.297048 L 28.2445,24.699349 H 17.84805 l 0.03559,0.280601 c 0.01095,0.09063 0.01786,0.187656 0.01786,0.307093 0.01643,0.362507 -0.02607,1.283566 -0.790581,2.037501 -0.46016,0.454237 -1.072556,0.743669 -1.712329,0.838048 -0.09034,0.0138 -0.180803,0.02395 -0.271264,0.02892 -0.09308,0.0051 -0.186278,0.0076 -0.279476,0.0051 -0.284833,-0.0076 -0.567166,-0.05541 -0.83843,-0.144716 -0.161639,-0.05287 -0.316375,-0.119547 -0.461588,-0.198804 h -0.0014 c -0.08903,-0.04669 -0.175327,-0.09946 -0.257456,-0.1573 -0.03975,-0.02649 -0.07951,-0.05541 -0.117837,-0.08566 -0.12605,-0.09559 -0.243887,-0.202558 -0.350774,-0.318353 -0.560262,-0.604031 -0.839739,-1.44219 -0.709642,-2.306621 l 0.04249,-0.285789 H 8.6735556 l 1.3165034,-4.493804 -0.2876775,0.01258 -0.2863325,0.01126 -1.3123969,4.478792 -0.073976,0.253004 -0.071238,0.241635 h 3.5782879 c -0.09041,1.478617 0.835704,2.847842 2.287839,3.323494 1.264428,0.415272 2.746677,0.07054 3.687947,-0.858249 0.905442,-0.893573 0.956028,-1.978223 0.936983,-2.391066 0,-0.02517 -0.0014,-0.05034 -0.0014,-0.07418 h 9.196538 v 0.06292 c -0.02059,0.424102 0.02999,1.508752 0.935675,2.402325 0.676553,0.666951 1.630082,1.031886 2.582182,1.031886 0.374104,0 0.748088,-0.05663 1.105527,-0.173637 1.452137,-0.475652 2.378288,-1.844877 2.287946,-3.323494 z m -27.80296,-7.130479 -0.278096,-0.0213 -0.4876912,1.668701 0.2876775,-0.01137 0.2863207,-0.01247 0.469885,-1.602139 z M 30.750271,0 30.463772,0.80666052 C 29.609036,3.2253727 28.752752,5.6441124 27.898016,8.0615716 l -0.41243,1.1665678 C 26.443024,8.777622 24.89769,8.303184 23.056573,8.3333855 h -0.015 C 21.194865,8.3057118 19.649531,8.777622 18.607088,9.2281394 L 18.194658,8.0615716 C 17.339803,5.6441124 16.484948,3.2253727 15.628783,0.80666052 L 15.342522,0 l -4.49487,15.341634 0.257552,0.09195 0.257539,0.09052 4.030366,-13.755987 c 0.760347,2.1506569 1.520576,4.3000885 2.279495,6.449498 L 18.282382,9.9391562 18.567214,9.805755 C 19.54812,9.3476872 21.124996,8.8040484 23.03741,8.8367667 h 0.02321 c 1.91789,-0.030202 3.483815,0.5109205 4.464721,0.9689883 L 27.811602,9.9391562 28.419951,8.217613 C 29.17887,6.0682035 29.939099,3.9187719 30.700756,1.768115 l 4.030389,13.755987 0.257575,-0.09052 0.256266,-0.09195 z m -20.046476,15.829981 -0.505497,1.726433 0.278095,0.02142 0.278096,0.02141 0.464421,-1.585581 -0.257563,-0.09184 z m 24.684977,0.0011 -0.256147,0.09074 -0.257576,0.09184 0.464445,1.585581 0.278048,-0.02141 0.276858,-0.02009 z m 0.650723,2.219968 -0.27662,0.0213 -0.278286,0.02142 0.470039,1.602139 0.286261,0.01247 0.286261,0.01137 z"
     fill="#000000"
     fill-opacity="0.87"
     id="path54"
     style="stroke-width:1.14625" />
  <path
     d="m 25.218112,16.501899 c -0.321969,0 -0.582163,-0.239206 -0.582163,-0.534929 v -3.241699 c 0,-0.295724 0.260194,-0.534819 0.582163,-0.534819 0.321851,0 0.582164,0.239095 0.582164,0.534819 v 3.241699 c 0,0.294509 -0.260313,0.534929 -0.582164,0.534929 z"
     fill="#000000"
     fill-opacity="0.87"
     id="path56"
     style="stroke-width:1.14625" />
  <path
     d="M 21.217361,15.935841 C 20.89801,15.96719 20.61044,15.754477 20.57616,15.460078 l -0.283643,-2.446369 c -0.03428,-0.293295 0.197348,-0.557559 0.517889,-0.589019 0.319232,-0.03146 0.606921,0.181254 0.641201,0.475763 l 0.283404,2.446369 c 0.0344,0.294399 -0.197228,0.557448 -0.51765,0.589019 z"
     fill="#000000"
     fill-opacity="0.87"
     id="path58"
     style="stroke-width:1.14625" />
  <path
     d="m 14.134512,16.780071 c -0.04106,0.09946 -0.145213,0.161053 -0.254838,0.161053 -0.03285,0 -0.06713,-0.0062 -0.09855,-0.01755 l -2.564566,-0.90991 -0.257552,-0.09184 -0.257563,-0.09184 -3.7262387,-1.322642 c -0.142464,-0.05034 -0.2123331,-0.196266 -0.1575448,-0.32597 0.054812,-0.129592 0.2137138,-0.193727 0.3548209,-0.143391 l 3.6728186,1.303656 0.257552,0.09184 0.25754,0.09063 2.617961,0.93011 c 0.141167,0.05034 0.210917,0.196266 0.156164,0.325859 z"
     fill="#000000"
     fill-opacity="0.87"
     id="path60"
     style="stroke-width:1.14625" />
  <path
     d="m 13.605435,18.071033 c -0.01095,0.130917 -0.131406,0.230375 -0.272573,0.230375 h -0.02333 l -2.702852,-0.207636 -0.278096,-0.02142 -0.278096,-0.02142 -4.0125468,-0.308307 c -0.1507006,-0.01137 -0.2630388,-0.133346 -0.2493268,-0.27188 0.012307,-0.138314 0.142464,-0.241635 0.2958904,-0.22894 l 4.1111972,0.314599 0.278096,0.0213 0.278095,0.02141 2.604298,0.20013 c 0.150688,0.01126 0.261622,0.133456 0.249243,0.27177 z"
     fill="#000000"
     fill-opacity="0.87"
     id="path62"
     style="stroke-width:1.14625" />
  <path
     d="m 13.615433,19.805634 c 0.0069,0.138535 -0.109624,0.255433 -0.261622,0.261725 l -3.3659778,0.138424 -0.2876775,0.01269 -0.2863206,0.01126 -3.3495164,0.138534 h -0.012331 c -0.1452135,0 -0.2671334,-0.10586 -0.2726086,-0.240421 -0.00686,-0.139748 0.1095886,-0.256757 0.2602773,-0.263049 l 3.5234869,-0.144716 0.2876894,-0.01126 0.2863203,-0.01258 3.192019,-0.130917 c 0.154736,-0.0076 0.279358,0.100671 0.286261,0.240309 z"
     fill="#000000"
     fill-opacity="0.87"
     id="path64"
     style="stroke-width:1.14625" />
  <path
     d="m 39.114093,14.507339 -3.727583,1.323856 -0.256266,0.09063 -0.257456,0.09184 -2.564566,0.90991 c -0.03285,0.01137 -0.06582,0.01755 -0.09867,0.01755 -0.109505,0 -0.213773,-0.06159 -0.256147,-0.161053 -0.05475,-0.129593 0.01643,-0.275523 0.157473,-0.325859 l 2.618009,-0.93011 0.257576,-0.09063 0.256147,-0.09184 3.67414,-1.303656 c 0.139738,-0.05034 0.300068,0.0138 0.35494,0.143391 0.05344,0.129704 -0.01643,0.275634 -0.157593,0.32597 z"
     fill="#000000"
     fill-opacity="0.87"
     id="path66"
     style="stroke-width:1.14625" />
  <path
     d="m 40.298774,17.471086 c 0.01226,0.138424 -0.09998,0.26051 -0.250791,0.27177 l -4.012535,0.308417 -0.276739,0.02142 -0.278048,0.02131 -2.704304,0.207635 h -0.02321 c -0.139738,0 -0.260313,-0.09935 -0.272692,-0.230264 -0.01238,-0.138424 0.100103,-0.260511 0.250672,-0.27188 l 2.604321,-0.200019 0.278048,-0.02141 0.276739,-0.02009 4.112519,-0.315925 c 0.150807,-0.01391 0.283642,0.09052 0.296021,0.229051 z"
     fill="#000000"
     fill-opacity="0.87"
     id="path68"
     style="stroke-width:1.14625" />
  <path
     d="m 40.308653,20.127519 c -0.007,0.134671 -0.127478,0.240421 -0.274001,0.240421 h -0.0125 l -3.349433,-0.138424 -0.284833,-0.01137 -0.287689,-0.01258 -3.367287,-0.138313 c -0.150808,-0.0064 -0.268645,-0.123412 -0.261861,-0.261835 0.007,-0.139749 0.131526,-0.245498 0.286499,-0.24031 l 3.193269,0.130807 0.286261,0.01258 0.286261,0.01137 3.52369,0.144605 c 0.151879,0.0063 0.268407,0.123411 0.261622,0.263049 z"
     fill="#000000"
     fill-opacity="0.87"
     id="path70"
     style="stroke-width:1.14625" />
  <path
     d="m 30.852873,26.028521 c 0.104625,0.276848 0.195324,0.614187 0.224248,1.000537 0.0344,0.454348 -0.0275,0.849418 -0.112839,1.162693 z"
     fill="#ffffff"
     id="path72"
     style="stroke-width:1.14625" />
  <path
     d="m 30.965473,28.44332 c -0.0219,0 -0.04392,-0.0025 -0.0657,-0.0075 -0.146523,-0.03289 -0.236984,-0.169994 -0.199967,-0.304554 0.09582,-0.358754 0.131526,-0.723689 0.10403,-1.084871 -0.02333,-0.313386 -0.09451,-0.627985 -0.209607,-0.935078 -0.0494,-0.130807 0.02607,-0.274309 0.169852,-0.319567 0.143904,-0.04537 0.29864,0.02384 0.347918,0.156085 0.131525,0.348488 0.211035,0.707132 0.238412,1.064561 0.03154,0.414057 -0.0096,0.830542 -0.119147,1.240846 -0.03154,0.113256 -0.143904,0.190084 -0.265788,0.190084 z"
     fill="#000000"
     fill-opacity="0.87"
     id="path74"
     style="stroke-width:1.14625" />
  <path
     d="m 32.639356,25.928843 c 0.167829,0.247927 0.313756,0.549832 0.359106,0.895891 0.05511,0.406551 -0.04392,0.760227 -0.180208,1.042042 z"
     fill="#ffffff"
     id="path76"
     style="stroke-width:1.14625" />
  <path
     d="m 32.817659,28.117241 c -0.03702,0 -0.07404,-0.0075 -0.111052,-0.02142 -0.13831,-0.05663 -0.201395,-0.205097 -0.139739,-0.332151 0.145333,-0.302015 0.197348,-0.607894 0.157593,-0.90991 -0.03571,-0.264263 -0.142357,-0.531065 -0.319113,-0.794115 -0.07951,-0.118223 -0.03987,-0.273094 0.08903,-0.346059 0.128787,-0.07296 0.29733,-0.03643 0.376722,0.0818 0.219248,0.324644 0.351964,0.660769 0.397194,0.997997 0.05213,0.392643 -0.015,0.787824 -0.199966,1.174063 -0.04523,0.09449 -0.145213,0.149794 -0.250672,0.149794 z"
     fill="#000000"
     fill-opacity="0.87"
     id="path78"
     style="stroke-width:1.14625" />
  <path
     d="m 15.239087,26.028521 c -0.104506,0.276848 -0.195443,0.614187 -0.224367,1.000537 -0.03428,0.454348 0.02761,0.849418 0.112838,1.162693 z"
     fill="#ffffff"
     id="path80"
     style="stroke-width:1.14625" />
  <path
     d="m 15.124821,28.443431 c -0.123194,0 -0.234246,-0.07694 -0.26567,-0.191299 -0.109743,-0.408979 -0.150807,-0.826789 -0.119265,-1.240956 0.02595,-0.358533 0.106887,-0.716073 0.238412,-1.064561 0.0494,-0.130917 0.20556,-0.201454 0.347917,-0.156085 0.142476,0.04526 0.21913,0.188759 0.169852,0.319677 -0.115099,0.306983 -0.186278,0.620368 -0.209488,0.934967 -0.0275,0.361183 0.0082,0.726228 0.10403,1.084872 0.03559,0.13467 -0.05344,0.271769 -0.199966,0.304554 -0.02202,0.0063 -0.0438,0.0088 -0.06582,0.0088 z"
     fill="#000000"
     fill-opacity="0.87"
     id="path82"
     style="stroke-width:1.14625" />
  <path
     d="m 13.452604,25.928843 c -0.167829,0.247927 -0.313638,0.549832 -0.359106,0.895891 -0.05499,0.406551 0.04404,0.760227 0.180208,1.042042 z"
     fill="#ffffff"
     id="path84"
     style="stroke-width:1.14625" />
  <path
     d="m 13.272634,28.117241 c -0.105577,0 -0.20556,-0.05663 -0.250791,-0.149794 -0.184849,-0.385136 -0.253409,-0.780206 -0.199966,-1.174063 0.04523,-0.337228 0.178065,-0.672028 0.397314,-0.997997 0.07939,-0.118223 0.247934,-0.154761 0.376722,-0.0818 0.128788,0.07296 0.168543,0.227836 0.08903,0.346059 -0.176755,0.261835 -0.283523,0.529852 -0.319231,0.794115 -0.03964,0.302016 0.01238,0.607895 0.157592,0.90991 0.06166,0.127054 -0.0013,0.275523 -0.139738,0.332151 -0.03702,0.01512 -0.07404,0.02142 -0.110934,0.02142 z"
     fill="#000000"
     fill-opacity="0.87"
     id="path86"
     style="stroke-width:1.14625" />
  <path
     d="M 9.9450785,25.166298 H 0.29143043 C 0.13114447,25.166298 0,25.069821 0,24.95215 0,24.834258 0.13114447,24.737891 0.29143043,24.737891 H 9.9450785 c 0.1602825,0 0.2914265,0.09637 0.2914265,0.214259 0,0.117671 -0.131144,0.214148 -0.2914265,0.214148 z"
     fill="#000000"
     fill-opacity="0.87"
     id="path88"
     style="stroke-width:1.14625" />
  <path
     d="M 45.092843,25.211556 H 36.01688 c -0.150689,0 -0.274002,-0.113145 -0.274002,-0.251679 0,-0.138313 0.123313,-0.25168 0.274002,-0.25168 h 9.075963 c 0.150689,0 0.273883,0.113367 0.273883,0.25168 0,0.138534 -0.121885,0.251679 -0.273883,0.251679 z"
     fill="#000000"
     fill-opacity="0.87"
     id="path90"
     style="stroke-width:1.14625" />
  <path
     d="m 25.834079,20.580763 c -0.197347,0.470575 -0.65346,0.980226 -1.232886,1.057165 -0.535743,0.0691 -1.028874,-0.193948 -1.383694,-0.602927 -0.03416,0.08676 -0.07665,0.176175 -0.131526,0.265477 -0.08903,0.146151 -0.567047,0.868295 -1.364412,0.868295 h -0.02202 c -0.758919,-0.01247 -1.417736,-0.647965 -1.532836,-1.479832 -0.01785,-0.138423 0.08772,-0.264263 0.238293,-0.280711 0.148071,-0.01755 0.287809,0.08058 0.305544,0.217791 0.08772,0.641783 0.576807,1.033101 0.99864,1.039503 h 0.01095 c 0.502891,0 0.84938,-0.547403 0.887826,-0.610323 0.189015,-0.312171 0.18485,-0.631848 0.15057,-0.841912 -0.01226,-0.03897 -0.02321,-0.07804 -0.03428,-0.117009 -0.527292,0.05663 -0.982096,-0.113256 -1.065772,-0.422998 -0.09451,-0.352241 0.328873,-0.752389 0.946625,-0.893352 0.6193,-0.140963 1.197417,0.03014 1.291924,0.382597 0.07939,0.290646 -0.193181,0.612751 -0.637035,0.796544 0.01357,0.04647 0.02595,0.101996 0.03702,0.162267 0.221867,0.677106 0.789152,1.073501 1.227411,1.018088 0.339824,-0.04537 0.658936,-0.406551 0.797246,-0.738702 0.117956,-0.281925 0.101531,-0.547403 0.06725,-0.719825 -0.02607,-0.1371 0.07249,-0.268017 0.220439,-0.293185 0.150688,-0.02395 0.291855,0.06667 0.319231,0.202558 0.04666,0.236667 0.06856,0.599063 -0.09451,0.990491 z"
     fill="#000000"
     fill-opacity="0.87"
     id="path92"
     style="stroke-width:1.14625" />
</svg>
